<?xml version="1.0" encoding="utf-8"?>
<!-- Generator: Adobe Illustrator 26.4.1, SVG Export Plug-In . SVG Version: 6.00 Build 0)  -->
<svg version="1.1" id="Lager_1" xmlns="http://www.w3.org/2000/svg" xmlns:xlink="http://www.w3.org/1999/xlink" x="0px" y="0px"
	 viewBox="0 0 186.4 48.2" style="enable-background:new 0 0 186.4 48.2;" xml:space="preserve">
<style type="text/css">
	.st0{fill:#FFFFFF;}
</style>
<g>
	<path class="st0" d="M20.7,3.7c-1.5,0-3.2,0.1-5.4,0.3C14.1,4.1,13,4.3,12,4.4C8.4,4.8,6,5.2,4.8,5.5C4.1,5.8,3.5,6,3.3,6.1L2,6.6
		l-0.8,1C0.8,8,0.7,8.3,0.7,8.4c0,0.8,1.3,2.2,4,4.2c2.1,1.5,3.5,2.5,4.3,2.9c0.4,0.2,1.8,0.7,4.2,1.7c1.6,0.6,2.9,1.3,4,2
		c1,0.6,1.7,1,2,1.2c0.9,0.6,1.4,1.1,1.4,1.7c0,0.7-1.2,1.6-3.7,2.6c-3.6,1.5-8.9,3-15.9,4.6c-0.4,0.2-0.7,0.4-0.9,0.6
		c0,0,0,0.1,0,0.1c0,0.2,0.1,0.5,0.4,0.9c0.3,0.4,0.7,0.7,1,0.8c1-0.2,2-0.3,2.9-0.3c0.1,0,0.8-0.2,2.3-0.5c1.5-0.3,2.2-0.5,2.2-0.5
		c0.1,0,0.2,0,0.4,0.1c0.2,0,0.3,0.1,0.4,0.1c0.2,0,0.4-0.1,0.6-0.3l0.3-0.3c1.9-0.4,3.5-0.9,4.9-1.5c1.8-0.7,2.9-1.1,3.3-1.1
		c0.1,0,0.2,0,0.3,0.1l0.1,0.1c0.1,0,0.6-0.3,1.4-0.9c0.4,0,0.9-0.1,1.3-0.1c0.2-0.3,0.8-0.8,1.9-1.6c0.7-0.5,1.1-1.1,1.1-1.8
		c0-1.1-0.4-2.1-1.1-3.2c-0.7-1-1.7-1.8-2.9-2.4c-3.2-1.5-5.8-2.7-7.7-3.4L12.6,14c-0.5-0.3-0.9-0.6-1.2-0.8
		c-1.4-0.6-2.3-1.1-2.8-1.4c-1.4-1-2.4-1.8-3-2.3C5.4,9.2,5.2,8.8,5.1,8.6C5.6,8.2,6.3,8,6.9,8c1.5-0.2,2.7-0.4,3.5-0.6
		c2.4-0.3,3.7-0.4,4.1-0.4c0.1,0,0.6,0,1.3,0.1c0.3,0,0.5,0,0.7,0c0.2,0,0.3,0,0.4,0l1.9-0.2c1-0.1,1.5-0.1,1.6-0.1l1.5,0.1
		c0.9,0.1,1.4,0.1,1.5,0.1c1.3,0,1.9-0.5,1.9-1.4C25.2,4.3,23.7,3.7,20.7,3.7z"/>
	<path class="st0" d="M28.3,10.6c-0.5,0.8-0.7,1.6-0.7,2.2c0,0.7,0.6,1.2,1.8,1.5c0.7-0.8,1.1-1.4,1.1-1.7c0-0.7-0.2-1.5-0.6-2.2
		C29.1,10.5,28.5,10.6,28.3,10.6z"/>
	<path class="st0" d="M28.1,19.6c-0.5,0-0.9,0.2-1.2,0.7c-0.4,1.8-0.6,3.9-0.8,6.2c-0.1,1.1-0.1,1.9-0.1,2.2c0,0.1,0,0.2,0,0.2
		c0,0.2,0.3,0.6,0.7,1.2c0.3,0.4,0.4,0.7,0.4,1c0,0,0,0.1,0,0.1c0.8,0.3,1.3,0.5,1.6,0.5c0,0,0.1,0,0.1,0l0.5-0.1
		c0.3-1.1,0.4-1.7,0.4-2c0,0,0,0,0,0c-0.1-5.7-0.2-8.6-0.2-8.7C29,20.1,28.6,19.6,28.1,19.6z"/>
	<path class="st0" d="M66.9,29.2c0-0.2,0-0.4,0-0.6c0.1-1,0.1-1.9,0.1-2.6c0-0.8,0-1.4-0.1-1.9c-0.6-1.2-1.2-2.2-1.7-2.8
		c-0.4-0.2-0.8-0.5-1-0.9c-0.2,0-0.4,0-0.5,0c-1.5,0-3.1,0.4-4.6,1.1c-3.1,1.9-5,3.1-5.5,3.4c-0.8,0.7-1.4,1.1-1.9,1.1
		c-0.1,0-0.2,0-0.3-0.1c0-0.2,0-0.4,0-0.6c0-1.3-0.1-2.7-0.4-4.1c0-0.3-0.5-0.9-1.3-1.8c-1-1.2-1.9-1.8-2.7-1.8
		c-1.1,0-3,0.9-5.5,2.7c-1.6,1.1-2.9,2.1-4.1,2.9l-0.8-1.5c-0.4-0.7-0.9-1-1.5-1c-0.7,0-1.3,1.2-1.9,3.6c-0.4,1.8-0.6,3.1-0.6,4
		c0,0.2,0.2,0.6,0.7,1.2c0.5,0.7,1,1.1,1.4,1.1c0.7,0,1.9-0.8,3.5-2.3c1.3-1.2,2.1-2.1,2.6-2.5c1.3-1.1,2.2-1.9,2.7-2.2
		c1.6-1.3,2.6-1.9,3.2-1.9c0.3,0,0.6,0.1,0.7,0.4c0.1,0.7,0.2,1.6,0.2,2.6c0,1,0,2.1-0.1,3.5c-0.1,1.1-0.1,1.8-0.1,2.2
		c0,0.1,0,0.2,0,0.2c0.1,1.1,0.9,1.7,2.5,1.7c0.7,0,1.2-0.1,1.5-0.4l5.6-4.4c2.4-1.9,4.3-2.8,5.8-2.9c0.2,0.2,0.3,0.3,0.4,0.4
		c0.1,3.5,0.4,5.8,1,6.9c0.1,0.3,0.1,0.5,0.1,0.6c0,0,0,0.1,0,0.1c0.6,0.7,1.1,1,1.6,1c0,0,0.3,0,0.7-0.1c0.5-0.1,0.7-0.1,0.8-0.1
		c0-0.4-0.1-1.2-0.3-2.4C66.9,30.3,66.9,29.7,66.9,29.2z"/>
	<path class="st0" d="M90,19.7c-1.7-1-3.8-1.5-6-1.5c-1,0-1.7,0.1-2.1,0.2c-0.2,0.1-0.3,0.1-0.3,0.2c-1.9,0-4.2,0.7-6.7,2
		c-2.5,1.3-4,2.7-4.7,4.1c0,0.1,0,0.2,0,0.3c0,0.2,0,0.4,0.1,0.5l-0.4,0.6c0,0.9,0.5,1.7,1.6,2.4c0.6-0.3,0.9-0.5,1-0.5
		c0.2-0.6,0.4-1.1,0.6-1.5c0-0.1-0.1-0.1-0.1-0.2c0-1,0.6-1.7,1.9-2.3c0.4-0.2,1.7-0.6,4-1.3c2.1-0.7,4.1-1,6.1-1
		c1.3,0,2.4,0.3,3.3,0.9c0.3,0.2,0.7,0.6,1.1,1.2c0.5,0.6,0.7,0.9,0.7,1.1c0,0.4-0.1,0.6-0.2,0.8c-0.8,0.9-1.7,1.8-2.6,2.4
		c-1.4,0.8-2.9,1.5-4.4,2.1c-3.3,1.4-5.2,2.1-5.7,2.1c-0.1,0-0.2-0.1-0.4-0.2c0.5-1.7,0.7-3,0.7-3.9c0-0.7-0.2-1.3-0.7-1.9
		c-0.5-0.6-1-0.8-1.5-0.8c-0.3,0-0.9,0.4-1.6,1.3c-0.7,3.9-1.1,6.8-1.3,8.7c-0.2,0.7-0.4,1.3-0.6,1.6c-0.1,1.8-0.1,3.3-0.1,4.4
		c0,0.4,0,0.7,0,1c-0.2,0.2-0.3,0.4-0.3,0.5v3.5c0.7,1,1.4,1.5,2.1,1.5c0,0,0.2,0,0.5-0.1c0.2,0,0.3-0.1,0.4-0.1c0,0,0.1,0,0.1,0
		c0.5-0.8,0.8-2.2,0.9-4.3c0.2-2.4,0.3-3.7,0.4-4.1c0.5-3.8,0.8-5.8,0.8-6c0.1-0.1,0.2-0.2,0.2-0.3c0.8,0.7,1.4,1,1.8,1
		c0,0,0.2,0,0.6-0.1c0.4,0,0.6-0.1,0.6-0.1c0,0,0.8-0.2,2.3-0.5c1.5-0.3,2.3-0.5,2.3-0.5c0.1,0,0.2,0.1,0.4,0.2
		c0.3,0,0.6-0.2,1.1-0.5c1.5-0.4,3.1-1.3,4.8-2.7c1.9-1.5,2.9-3,2.9-4.3c0-1.4-0.4-2.6-1.3-3.6C91.3,20.9,90.5,20,90,19.7z"/>
	<path class="st0" d="M100.8,0.8L100.3,1l-1.1,2.2l0.1,0.9c0.1,0.5,0.1,0.9,0.1,1v0c0,0.2-0.1,0.7-0.3,1.5l-2.6,16.8v4.4
		c0,0.1,0.1,0.2,0.3,0.5c0.1,1.4,0.2,2.2,0.2,2.3c0.1,0.3,0.5,0.6,1,0.9c0.5,0.3,0.9,0.5,1.1,0.5c0.4,0,0.8-0.2,1.1-0.6
		c0.3-0.4,0.5-0.9,0.5-1.5c0-0.4-0.1-0.8-0.4-1.1c0.1-0.2,0.1-0.4,0.2-0.6c-0.2-0.6-0.3-1.7-0.3-3.2c0-0.6,0-1.2,0-1.9
		c0.3-1.8,0.5-3.2,0.7-4.1c0-0.5,0-0.9-0.1-1.2c0.7-2.5,1-4,1.1-4.5c0.5-3.1,0.9-5.3,1.3-6.6V3.2c0-0.4-0.3-0.8-1-1.5
		C101.7,1.1,101.2,0.8,100.8,0.8z"/>
	<path class="st0" d="M107.9,19.6c-0.5,0-0.9,0.2-1.2,0.7c-0.4,1.8-0.6,3.9-0.8,6.2c-0.1,1.1-0.1,1.9-0.1,2.2c0,0.1,0,0.2,0,0.2
		c0,0.2,0.3,0.6,0.7,1.2c0.3,0.4,0.4,0.7,0.4,1c0,0,0,0.1,0,0.1c0.8,0.3,1.3,0.5,1.6,0.5c0,0,0.1,0,0.1,0l0.5-0.1
		c0.3-1.1,0.4-1.7,0.4-2c0,0,0,0,0,0c-0.1-5.7-0.2-8.6-0.2-8.7C108.8,20.1,108.4,19.6,107.9,19.6z"/>
	<path class="st0" d="M108.1,10.6c-0.5,0.8-0.7,1.6-0.7,2.2c0,0.7,0.6,1.2,1.8,1.5c0.7-0.8,1.1-1.4,1.1-1.7c0-0.7-0.2-1.5-0.6-2.2
		C108.9,10.5,108.4,10.6,108.1,10.6z"/>
	<path class="st0" d="M139.9,6.2c-0.9-0.4-1.5-0.6-1.8-0.7c-1.4-0.5-3-0.8-4.8-0.8c-1.9,0-2.9,0-3.1,0.1c-0.8,0.1-1.5,0.2-2,0.3
		c-0.9,0.1-1.7,0.4-2.4,0.8c-5.4,3.7-8.3,8.9-8.7,15.5c-0.1,1.2-0.4,2-0.9,2.3c-0.2,0.1-0.7,0.2-1.3,0.2c0,0-0.1,0-0.2-0.1
		c-0.1,0-0.2-0.1-0.2-0.1c-0.2,0-0.6,0.1-1.4,0.3c-0.2,0.1-0.5,0.3-0.9,0.7c-0.4,0.4-0.5,0.7-0.5,1c0,0.6,0.2,1.1,0.6,1.5
		c0.4,0.4,0.8,0.7,1.3,0.7c0.1,0,1.3-0.2,3.6-0.7l1.5,2.6c1,1.7,2,2.6,2.9,2.6c0.2,0,0.4-0.3,0.7-0.8c0.3-0.6,0.5-1,0.5-1.2
		s-0.3-0.7-1-1.5c-0.4-1-0.7-1.7-0.7-2.2c2.5-0.8,4.3-1.5,5.6-1.9c2.3-0.4,4-0.7,5.3-0.8c0.5-0.2,1.1-0.5,1.6-1
		c0.6-0.5,0.9-0.9,0.9-1.2c-0.5-0.3-1.1-0.5-1.7-0.5c-1.4,0-3.3,0.2-5.7,0.6c-3.5,0.6-5.2,0.8-5.2,0.9c-0.5,0-1-0.1-1.3-0.2
		c0-0.1-0.1-0.7-0.2-1.7c0-1.2,0.4-2.7,1.1-4.7c0.7-1.8,1.3-3,1.8-3.5c2.4-2.4,4.5-3.6,6.2-3.8c0,0,0.3-0.1,0.9-0.2
		c0.6-0.1,1-0.2,1-0.2c2.7,0,4.7,0.4,5.9,1.1c0.4,0.2,1,0.7,1.7,1.3c-0.4,0.8-0.7,1.5-0.7,2.1c0,0.7,0.6,1.2,1.8,1.5
		c0.7-0.8,1.1-1.4,1.1-1.7c0-0.2,0-0.5-0.1-0.7l0.4-0.1c-0.2,0-0.3,0-0.3-0.1c0-0.1,0.1-0.3,0.3-0.5c0-0.2,0.1-0.5,0.1-1
		c0-0.4-0.2-1.4-0.7-2.8C140.9,7,140.5,6.6,139.9,6.2z"/>
	<path class="st0" d="M138.9,19.6c-0.5,0-0.9,0.2-1.2,0.7c-0.4,1.8-0.6,3.9-0.8,6.2c-0.1,1.1-0.1,1.9-0.1,2.2c0,0.1,0,0.2,0,0.2
		c0,0.2,0.3,0.6,0.7,1.2c0.3,0.4,0.4,0.7,0.4,1c0,0,0,0.1,0,0.1c0.8,0.3,1.3,0.5,1.6,0.5c0,0,0.1,0,0.1,0l0.5-0.1
		c0.3-1.1,0.4-1.7,0.4-2c0,0,0,0,0,0c-0.1-5.7-0.2-8.6-0.2-8.7C139.8,20.1,139.4,19.6,138.9,19.6z"/>
	<path class="st0" d="M159.7,22c-0.7-0.9-1.4-1.7-2.1-2.3c-0.9-0.8-2.2-1.2-4-1.2c-5.5,0-9.2,1.8-11,5.3c-0.3,0.5-0.4,1.2-0.4,2.2
		c0,0.8,0.4,1.7,1.3,2.7c0.8,1,1.8,1.7,2.8,2c0.9,0.4,1.4,0.7,1.6,0.8c0.9,0.4,1.6,0.6,2,0.6l1.9,0.1c1.1,0.1,1.7,0.1,1.8,0.1
		c0,0,0.4-0.1,1.3-0.2c0.5-0.4,0.7-0.7,0.7-0.7c0.9-0.5,1.4-0.8,1.4-0.9c0-0.6-0.7-0.9-2.2-1.1c-0.9-0.1-1.7-0.2-2.4-0.2
		c-2.6-0.7-3.8-1.2-3.8-1.6c0,0,0.1-0.1,0.3-0.3c0.5,0,0.9,0.1,1,0.2c1.1-0.2,1.7-0.4,1.7-0.4h0l3.3-0.4c2.2-0.3,3.6-0.4,4.3-0.4
		c0.4-0.2,0.7-0.9,0.8-2.1c0-0.4,0-0.8,0-1.1C159.8,22.7,159.8,22.3,159.7,22z M153.6,24.1h-5.8c-0.1,0-0.2-0.1-0.2-0.3
		c0-0.2,0.3-0.6,0.9-1c0.6-0.4,1.1-0.7,1.5-0.7c1.6-0.3,3.1-0.5,4.5-0.6c0.6,0.3,1,0.5,1,0.7c0.1,0.4,0.2,0.8,0.4,1.4
		C155.8,23.9,155,24.1,153.6,24.1z"/>
	<path class="st0" d="M153.6,32.5C153.6,32.5,153.6,32.5,153.6,32.5C153.6,32.5,153.6,32.5,153.6,32.5L153.6,32.5z"/>
	<path class="st0" d="M186.4,28.9c0.1-2.4-0.6-11.2-0.6-12.7c0-1.3,0-2.3-0.1-3.2c0.2-1.4,0.3-4.5,0.3-9.3c0,0-0.1-0.8-0.2-2.3
		c-0.4-0.2-0.7-0.3-0.9-0.3c-0.9,0-1.4,0.2-1.6,0.7c-0.2,0.6-0.3,1.6-0.3,3c0,0.2,0,0.4,0,0.7c0,0.7,0,1.3,0,1.8
		c0,0.8,0,1.3-0.1,1.5c0,1.1,0.1,1.8,0.3,2.4c-0.4,3.2-0.6,6-0.7,8.3c-0.3,0-2,0.1-5.2,0.1c-1.9,0-3.3,0.1-4.2,0.3
		c-1.4,0.3-2.7,0.5-3.9,0.7c-0.3,0.1-0.5,0.3-0.7,0.4c-3.1,0.6-5.2,1.6-6.4,3c-0.7,0.8-1.1,1.6-1.1,2.2c0,0.2,0.1,0.8,0.4,1.7
		c0.3,1,0.7,1.7,1,2.1c0.5,0.7,1.1,1.3,2,1.9c0.6,0.2,1.1,0.4,1.4,0.4l0.9,0.4l2-0.1c0.6,0,1.1,0,1.4,0c0.3,0,0.4,0,0.5,0
		c1.2,0,3.2-0.4,5.9-1.1c3.5-0.9,5.6-1.5,6.1-1.8c0.3-0.1,3.6,0,3.8-0.5C186.4,29,186.4,29,186.4,28.9z M177.1,28.3
		c-4,0.6-6.4,0.9-7.1,0.9c-1.4,0-2.6-0.3-3.7-0.9c-0.3-0.2-0.7-0.5-1.1-0.9c-0.4-0.4-0.6-0.7-0.6-0.9c0-0.4,0.3-0.8,1-1.1
		c0.7-0.3,1-0.4,1-0.4c0.4-0.5,1.9-1,4.5-1.5c2.4-0.4,4.3-0.7,5.8-0.7l3.4,0.3c2.3,0.2,2.5,0.2,2.5,0.2l0.2,3.9L177.1,28.3z"/>
	<path class="st0" d="M185.9,3.7c0,0,0,0.1,0,0.1c0,0,0,0,0,0V3.7z"/>
</g>
</svg>
